<?xml version="1.0" standalone="no"?>
<!DOCTYPE svg PUBLIC "-//W3C//DTD SVG 20010904//EN"
 "http://www.w3.org/TR/2001/REC-SVG-20010904/DTD/svg10.dtd">
<svg version="1.0" xmlns="http://www.w3.org/2000/svg"
 width="512.000000pt" height="512.000000pt" viewBox="0 0 512.000000 512.000000"
 preserveAspectRatio="xMidYMid meet">

<g transform="translate(0.000000,512.000000) scale(0.100000,-0.100000)"
fill="#000000" stroke="none">
<path d="M2402 5108 c-200 -17 -428 -93 -570 -190 -127 -86 -240 -226 -300
-370 -32 -77 -62 -204 -62 -262 0 -32 -5 -37 -52 -63 -32 -17 -64 -45 -83 -71
-27 -40 -30 -51 -30 -122 0 -71 3 -82 30 -122 18 -25 50 -54 78 -68 l47 -25 0
-1255 0 -1255 -47 -25 c-28 -14 -60 -43 -78 -68 -27 -40 -30 -51 -30 -122 0
-71 3 -82 30 -122 19 -26 51 -54 83 -71 47 -26 52 -31 52 -63 0 -58 30 -185
62 -262 60 -144 173 -284 301 -371 295 -201 808 -255 1195 -125 269 90 463
262 560 497 32 76 62 203 62 261 0 32 5 37 52 63 32 17 64 45 83 71 27 40 30
51 30 122 0 71 -3 82 -30 122 -18 25 -50 54 -78 68 l-47 25 0 1255 0 1255 47
25 c28 14 60 43 78 68 27 40 30 51 30 122 0 71 -3 82 -30 122 -19 26 -51 54
-83 71 -47 26 -52 31 -52 63 0 58 -30 185 -62 261 -100 242 -311 424 -588 506
-114 34 -173 45 -310 57 -128 11 -143 11 -288 -2z m363 -109 c449 -58 738
-313 781 -689 l7 -60 -992 0 -991 0 0 30 c0 68 33 189 77 280 39 81 59 108
132 180 47 47 115 102 151 123 219 127 523 176 835 136z m890 -863 c85 -36 86
-169 1 -210 -31 -14 -133 -16 -1090 -16 -1147 0 -1099 -2 -1144 55 -42 53 -20
139 42 169 45 23 2138 24 2191 2z m-1655 -329 c0 -1 -97 -99 -215 -217 l-215
-215 0 218 0 217 215 0 c118 0 215 -1 215 -3z m530 -952 l-955 -955 -3 297 -2
298 657 657 658 658 300 0 300 0 -955 -955z m103 -627 l-918 -918 -72 0 -73 0
0 222 0 223 987 988 988 987 3 -292 2 -293 -917 -917z m369 -370 l-547 -548
-293 2 -293 3 838 837 838 838 3 -292 2 -293 -548 -547z m548 -443 l0 -105
-107 0 -108 0 105 105 c58 58 106 105 107 105 2 0 3 -47 3 -105z m105 -219
c60 -25 85 -116 48 -173 -36 -55 4 -53 -1144 -53 -1169 0 -1111 -3 -1144 61
-38 73 -6 146 75 172 8 3 491 6 1073 6 893 1 1063 -1 1092 -13z m-109 -386
c-11 -94 -33 -169 -78 -260 -78 -160 -251 -303 -451 -371 -290 -99 -672 -95
-943 10 -123 47 -201 98 -295 191 -73 72 -93 99 -132 180 -44 91 -77 212 -77
280 l0 30 991 0 992 0 -7 -60z"/>
</g>
</svg>
